<svg xmlns="http://www.w3.org/2000/svg" viewBox="0 0 64 64">
  <!-- Background circle -->
  <circle cx="32" cy="32" r="32" fill="#4e73df"/>
  <!-- Wallet icon (fa-wallet, Font Awesome 6 free, scaled to fit) -->
  <g transform="translate(10, 13) scale(0.086)">
    <path fill="white" d="M64 32C28.7 32 0 60.7 0 96V416c0 35.3 28.7 64 64 64H448c35.3 0 64-28.7 64-64V192c0-35.3-28.7-64-64-64H80c-8.8 0-16-7.2-16-16s7.2-16 16-16H448c17.7 0 32-14.3 32-32s-14.3-32-32-32H64zM448 224V416H64V224H448zm-80 96a32 32 0 1 0 0-64 32 32 0 1 0 0 64z"/>
  </g>
</svg>
